# File created by Blade
# Date/Time:  Wed Apr 08 16:20:06 2015
#---------------------------------------------------------
:version 1.10
:name HOM
:units
  mass 1.0
  length 1.000000
  angle deg
:documentation
     Acclaim Skeleton File
:root
   axis xyz
   order TX TY TZ RX RY RZ
   position 0.000000 0.000000 0.000000
   orientation 0 0 0
:bonedata
   begin
      id 1
      name Spine_dum
      direction 0.000000 1.000000 0.000000
      length 4.885285
      axis 0.0 0.0 0.0 xyz
   end
   begin
      id 2
      name LeftUpLeg_dum
      direction 1.000000 0.000000 0.000000
      length 2.672193
      axis 0.0 0.0 0.0 xyz
   end
   begin
      id 3
      name RightUpLeg_dum
      direction -1.000000 0.000000 0.000000
      length 2.672193
      axis 0.0 0.0 0.0 xyz
   end
   begin
      id 4
      name Spine
      direction 0.000000 1.000000 0.000000
      length 0.000000
      axis 0.0 0.0 0.0 xyz
      dof rx ry rz
   end
   begin
      id 5
      name Spine_dum1
      direction 0.000000 1.000000 0.000000
      length 16.494159
      axis 0.0 0.0 0.0 xyz
   end
   begin
      id 6
      name Spine_dum2
      direction 0.000000 1.000000 0.000000
      length 10.663448
      axis 0.0 0.0 0.0 xyz
   end
   begin
      id 7
      name Spine_dum3
      direction 0.000000 1.000000 0.000000
      length 10.663448
      axis 0.0 0.0 0.0 xyz
   end
   begin
      id 8
      name Head
      direction 0.000000 1.000000 0.000000
      length 4.527550
      axis 0.0 0.0 0.0 xyz
      dof rx ry rz
   end
   begin
      id 9
      name LeftShoulder
      direction 1.000000 0.000000 0.000000
      length 7.531907
      axis 0.0 0.0 -90.0 xyz
      dof rx ry rz
   end
   begin
      id 10
      name LeftArm
      direction 1.000000 0.000000 0.000000
      length 10.229199
      axis 0.0 0.0 -90.0 xyz
      dof rx ry rz
   end
   begin
      id 11
      name LeftForeArm
      direction 1.000000 0.000000 0.000000
      length 8.673495
      axis 0.0 0.0 -90.0 xyz
      dof ry rz rx
   end
   begin
      id 12
      name LeftHand
      direction 0.000000 0.000000 0.000000
      length 0.000000
      axis 0.0 0.0 -90.0 xyz
      dof rx ry rz
   end
   begin
      id 13
      name LeftHand_dum1
      direction 0.000000 0.000000 0.000000
      length 0.000000
      axis 0.0 0.0 -90.0 xyz
   end
   begin
      id 14
      name LeftHand_dum2
      direction 1.000000 0.000000 0.000000
      length 3.937000
      axis 0.0 0.0 -90.0 xyz
   end
   begin
      id 15
      name LeftHandThumb1
      direction 0.000000 0.000000 1.000000
      length 3.937000
      axis 0.0 0.0 -90.0 xyz
      dof rx rz ry
   end
   begin
      id 16
      name RightShoulder
      direction -1.000000 0.000000 0.000000
      length 7.531907
      axis 0.0 0.0 90.0 xyz
      dof rx ry rz
   end
   begin
      id 17
      name RightArm
      direction -1.000000 0.000000 0.000000
      length 10.229199
      axis 0.0 0.0 90.0 xyz
      dof rx ry rz
   end
   begin
      id 18
      name RightForeArm
      direction -1.000000 0.000000 0.000000
      length 8.673495
      axis 0.0 0.0 90.0 xyz
      dof ry rz rx
   end
   begin
      id 19
      name RightHand
      direction 0.000000 0.000000 0.000000
      length 0.000000
      axis 0.0 0.0 90.0 xyz
      dof rx ry rz
   end
   begin
      id 20
      name RightHand_dum1
      direction 0.000000 0.000000 0.000000
      length 0.000000
      axis 0.0 0.0 90.0 xyz
   end
   begin
      id 21
      name RightHand_dum2
      direction -1.000000 0.000000 0.000000
      length 3.937000
      axis 0.0 0.0 90.0 xyz
   end
   begin
      id 22
      name RightHandThumb1
      direction 0.000000 0.000000 1.000000
      length 3.937000
      axis 0.0 0.0 90.0 xyz
      dof rx rz ry
   end
   begin
      id 23
      name LeftUpLeg
      direction 0.000000 -1.000000 0.000000
      length 16.263388
      axis 0.0 0.0 0.0 xyz
      dof rx ry rz
   end
   begin
      id 24
      name LeftLeg
      direction 0.000000 -1.000000 0.000000
      length 14.328163
      axis 0.0 0.0 0.0 xyz
      dof rx ry rz
   end
   begin
      id 25
      name LeftFoot
      direction 0.000000 -0.258819 0.965926
      length 5.031290
      axis 15.0 0.0 0.0 xyz
      dof rx ry rz
   end
   begin
      id 26
      name LeftToeBase
      direction 0.000000 0.000000 1.000000
      length 2.952750
      axis 0.0 0.0 0.0 xyz
      dof rx ry rz
   end
   begin
      id 27
      name RightUpLeg
      direction 0.000000 -1.000000 0.000000
      length 16.263388
      axis 0.0 0.0 0.0 xyz
      dof rx ry rz
   end
   begin
      id 28
      name RightLeg
      direction 0.000000 -1.000000 0.000000
      length 14.328163
      axis 0.0 0.0 0.0 xyz
      dof rx ry rz
   end
   begin
      id 29
      name RightFoot
      direction 0.000000 -0.258819 0.965926
      length 5.031290
      axis 15.0 0.0 0.0 xyz
      dof rx ry rz
   end
   begin
      id 30
      name RightToeBase
      direction 0.000000 0.000000 1.000000
      length 2.952750
      axis 0.0 0.0 0.0 xyz
      dof rx ry rz
   end
:hierarchy
   begin
      root Spine_dum LeftUpLeg_dum RightUpLeg_dum
      Spine_dum Spine
      LeftUpLeg_dum LeftUpLeg
      RightUpLeg_dum RightUpLeg
      Spine Spine_dum1 Spine_dum2 Spine_dum3
      Spine_dum1 Head
      Spine_dum2 LeftShoulder
      Spine_dum3 RightShoulder
      LeftShoulder LeftArm
      LeftArm LeftForeArm
      LeftForeArm LeftHand
      LeftHand LeftHand_dum1 LeftHand_dum2
      LeftHand_dum1 LeftHandThumb1
      RightShoulder RightArm
      RightArm RightForeArm
      RightForeArm RightHand
      RightHand RightHand_dum1 RightHand_dum2
      RightHand_dum1 RightHandThumb1
      LeftUpLeg LeftLeg
      LeftLeg LeftFoot
      LeftFoot LeftToeBase
      RightUpLeg RightLeg
      RightLeg RightFoot
      RightFoot RightToeBase
   end

# File created by Blade
# Date/Time:  Wed Apr 08 16:19:59 2015
# Frame Rate: 120.000 fps
#------------------------------------------------------
:FULLY-SPECIFIED
:DEGREES
680
root -21.114993 4.034405 0.364687 351.658499 -82.219800 -446.097540
Spine 12.756333 -11.578124 -3.091387
Head 34.535258 -6.296071 2.432615
LeftShoulder -2.162402 30.296601 22.245761
LeftArm 75.056161 -19.004392 -110.748601
LeftForeArm -20.536928 -0.000000 137.385487
LeftHand 17.813882 0.000000 30.141575
LeftHandThumb1 -26.253704 0.000000 33.147579
RightShoulder -1.252783 7.472491 -23.291379
RightArm 29.025291 31.199357 93.719851
RightForeArm 14.221087 -0.000000 135.257685
RightHand 24.715982 -0.000000 -40.831393
RightHandThumb1 -24.326973 -0.000000 -32.862282
LeftUpLeg -58.742678 -11.375810 14.079072
LeftLeg 129.164671 -0.000000 -0.000000
LeftFoot 21.583796 -6.178626 -14.588816
LeftToeBase -38.321627 -0.000000 0.000000
RightUpLeg -52.101915 -3.876000 -11.434710
RightLeg 129.356249 -0.000000 -0.000000
RightFoot 19.303360 1.017541 12.206568
RightToeBase -43.068638 -0.000000 0.000000
681
root -21.002342 4.040703 0.358510 351.406113 -82.025512 -445.627149
Spine 11.977100 -11.932701 -3.342166
Head 31.980678 -6.167410 3.179147
LeftShoulder -2.578737 29.384041 22.494206
LeftArm 76.560056 -20.211482 -112.582327
LeftForeArm -21.473739 -0.000000 138.545807
LeftHand 18.226089 -0.000000 31.504055
LeftHandThumb1 -26.253704 0.000000 33.147579
RightShoulder -1.345136 8.623343 -23.640279
RightArm 29.661834 33.296141 93.968760
RightForeArm 15.917868 -0.000000 135.807526
RightHand 24.912277 -0.000000 -41.682801
RightHandThumb1 -24.326973 -0.000000 -32.862282
LeftUpLeg -58.785202 -11.489195 13.879998
LeftLeg 128.756289 -0.000000 -0.000000
LeftFoot 21.865761 -5.733419 -14.458100
LeftToeBase -37.750191 -0.000000 0.000000
RightUpLeg -52.035560 -3.817402 -11.396378
RightLeg 128.948624 -0.000000 -0.000000
RightFoot 19.907005 0.929759 12.133481
RightToeBase -43.244394 -0.000000 0.000000
682
root -20.891108 4.048609 0.353895 351.359624 -81.846574 -445.457758
Spine 11.392288 -12.042486 -3.426730
Head 29.363365 -6.176058 3.638651
LeftShoulder -2.829564 28.039529 22.660033
LeftArm 77.940537 -21.318430 -114.271418
LeftForeArm -22.209542 -0.000000 139.543730
LeftHand 19.092476 -0.000000 32.765941
LeftHandThumb1 -26.253704 0.000000 33.147579
RightShoulder -1.843803 9.857521 -24.174588
RightArm 30.201103 35.115477 94.325507
RightForeArm 17.002313 -0.000000 136.414864
RightHand 24.751583 -0.000000 -41.176857
RightHandThumb1 -24.326973 -0.000000 -32.862282
LeftUpLeg -58.704948 -11.624973 13.699116
LeftLeg 128.364135 -0.000000 -0.000000
LeftFoot 22.164680 -5.369402 -14.189021
LeftToeBase -37.724902 -0.000000 0.000000
RightUpLeg -51.852398 -3.743550 -11.313656
RightLeg 128.551613 -0.000000 -0.000000
RightFoot 20.443979 0.848953 12.050014
RightToeBase -43.375568 -0.000000 0.000000
683
root -20.781903 4.057750 0.352749 351.514034 -81.710545 -445.550679
Spine 10.905158 -12.136176 -3.460044
Head 26.854441 -6.099352 4.049895
LeftShoulder -3.072564 26.866648 22.813602
LeftArm 79.430997 -22.145827 -116.062346
LeftForeArm -22.745939 -0.000000 140.497447
LeftHand 18.965487 -0.000000 33.737539
LeftHandThumb1 -26.253704 0.000000 33.147579
RightShoulder -2.215119 10.972133 -24.700193
RightArm 30.863531 36.822248 94.702297
RightForeArm 18.469469 -0.000000 136.837949
RightHand 25.202935 -0.000000 -42.347285
RightHandThumb1 -24.326973 -0.000000 -32.862282
LeftUpLeg -58.550585 -11.743306 13.543730
LeftLeg 128.036518 -0.000000 -0.000000
LeftFoot 22.443729 -5.013898 -13.835379
LeftToeBase -37.341489 -0.000000 0.000000
RightUpLeg -51.598576 -3.632121 -11.190714
RightLeg 128.155193 -0.000000 -0.000000
RightFoot 20.933004 0.700191 12.128369
RightToeBase -43.581502 -0.000000 0.000000
684
root -20.676280 4.064952 0.352624 351.417527 -81.555461 -445.382301
Spine 10.439423 -12.247682 -3.575976
Head 24.477954 -6.078906 4.465627
LeftShoulder -3.254745 25.851934 23.050873
LeftArm 80.880697 -22.730578 -117.678504
LeftForeArm -22.711133 -0.000000 141.365558
LeftHand 19.460405 -0.000000 34.339448
LeftHandThumb1 -26.253704 0.000000 33.147579
RightShoulder -2.522413 12.086028 -25.170719
RightArm 31.335100 38.176022 94.880927
RightForeArm 19.908146 0.000000 137.221034
RightHand 25.209606 -0.000000 -43.456696
RightHandThumb1 -24.326973 -0.000000 -32.862282
LeftUpLeg -58.404395 -11.887027 13.345096
LeftLeg 127.705772 -0.000000 -0.000000
LeftFoot 22.853835 -4.555642 -13.626780
LeftToeBase -37.508307 -0.000000 0.000000
RightUpLeg -51.353160 -3.548645 -11.110345
RightLeg 127.778133 -0.000000 -0.000000
RightFoot 21.381398 0.530407 12.135999
RightToeBase -43.651244 -0.000000 0.000000
685
root -20.578216 4.072904 0.351289 351.477059 -81.430112 -445.359495
Spine 10.002578 -12.298891 -3.631445
Head 22.123651 -6.060184 4.762216
LeftShoulder -3.432256 24.663690 23.192753
LeftArm 82.186089 -23.278556 -119.069387
LeftForeArm -22.514075 -0.000000 142.229233
LeftHand 19.391039 0.000000 34.654448
LeftHandThumb1 -26.253704 0.000000 33.147579
RightShoulder -2.862603 13.151944 -25.698596
RightArm 31.728268 39.301084 95.030557
RightForeArm 21.456187 -0.000000 137.556823
RightHand 25.788543 -0.000000 -43.961860
RightHandThumb1 -24.326973 -0.000000 -32.862282
LeftUpLeg -58.267873 -12.004500 13.199155
LeftLeg 127.415187 -0.000000 -0.000000
LeftFoot 23.374846 -4.078009 -13.604732
LeftToeBase -37.584262 -0.000000 0.000000
RightUpLeg -51.119452 -3.441172 -11.001243
RightLeg 127.430039 -0.000000 -0.000000
RightFoot 21.779599 0.334716 12.282605
RightToeBase -43.707290 -0.000000 0.000000
686
root -20.482291 4.077967 0.355464 351.000078 -81.334946 -444.713958
Spine 9.509711 -12.273263 -3.708838
Head 19.895596 -6.055153 4.871455
LeftShoulder -3.587676 23.604035 23.291763
LeftArm 83.403117 -23.636209 -120.175162
LeftForeArm -21.725479 -0.000000 142.892178
LeftHand 19.193708 -0.000000 34.992506
LeftHandThumb1 -26.253704 0.000000 33.147579
RightShoulder -3.170557 14.247949 -26.270276
RightArm 31.899341 40.356043 95.120673
RightForeArm 22.563335 -0.000000 138.034015
RightHand 26.341909 -0.000000 -44.087379
RightHandThumb1 -24.326973 -0.000000 -32.862282
LeftUpLeg -58.191371 -12.101918 12.993697
LeftLeg 127.119735 -0.000000 -0.000000
LeftFoot 24.010628 -3.668029 -13.756640
LeftToeBase -37.913634 -0.000000 0.000000
RightUpLeg -50.981591 -3.335852 -10.982691
RightLeg 127.119654 -0.000000 -0.000000
RightFoot 22.031462 0.135485 12.344329
RightToeBase -43.657106 -0.000000 0.000000
